<mxfile host="app.diagrams.net" agent="Mozilla/5.0 (Windows NT 10.0; Win64; x64) AppleWebKit/537.36 (KHTML, like Gecko) Chrome/127.0.0.0 Safari/537.36" version="24.7.16">
  <diagram name="Page-1" id="EbaLPHoG32o2EvIgkiqX">
    <mxGraphModel grid="1" page="1" gridSize="10" guides="1" tooltips="1" connect="1" arrows="1" fold="1" pageScale="1" pageWidth="1169" pageHeight="827" math="0" shadow="0">
      <root>
        <mxCell id="0" />
        <mxCell id="1" parent="0" />
        <mxCell id="wJTwPAdukGqjJblI66U8-2" value="&lt;font style=&quot;font-size: 18px;&quot;&gt;LOAI HANG&lt;/font&gt;" style="rounded=1;whiteSpace=wrap;html=1;" vertex="1" parent="1">
          <mxGeometry x="170" y="210" width="120" height="60" as="geometry" />
        </mxCell>
        <mxCell id="wJTwPAdukGqjJblI66U8-3" value="&lt;span style=&quot;font-size: 18px;&quot;&gt;MAT HANG&lt;/span&gt;" style="rounded=1;whiteSpace=wrap;html=1;" vertex="1" parent="1">
          <mxGeometry x="170" y="500" width="120" height="60" as="geometry" />
        </mxCell>
        <mxCell id="wJTwPAdukGqjJblI66U8-4" value="" style="endArrow=classic;html=1;rounded=0;entryX=0.5;entryY=0;entryDx=0;entryDy=0;exitX=0.5;exitY=1;exitDx=0;exitDy=0;" edge="1" parent="1" source="wJTwPAdukGqjJblI66U8-2" target="wJTwPAdukGqjJblI66U8-3">
          <mxGeometry width="50" height="50" relative="1" as="geometry">
            <mxPoint x="250" y="110" as="sourcePoint" />
            <mxPoint x="240" y="440" as="targetPoint" />
          </mxGeometry>
        </mxCell>
        <mxCell id="wJTwPAdukGqjJblI66U8-5" value="&lt;font style=&quot;font-size: 18px;&quot;&gt;1-n&lt;/font&gt;" style="edgeLabel;html=1;align=center;verticalAlign=middle;resizable=0;points=[];" connectable="0" vertex="1" parent="wJTwPAdukGqjJblI66U8-4">
          <mxGeometry x="-0.0957" y="-1" relative="1" as="geometry">
            <mxPoint as="offset" />
          </mxGeometry>
        </mxCell>
        <mxCell id="wJTwPAdukGqjJblI66U8-6" value="&lt;span style=&quot;font-size: 18px;&quot;&gt;KHACH HANG&lt;/span&gt;" style="rounded=1;whiteSpace=wrap;html=1;" vertex="1" parent="1">
          <mxGeometry x="970" y="200" width="150" height="60" as="geometry" />
        </mxCell>
        <mxCell id="wJTwPAdukGqjJblI66U8-7" value="&lt;span style=&quot;font-size: 18px;&quot;&gt;DON HANG&lt;/span&gt;" style="rounded=1;whiteSpace=wrap;html=1;" vertex="1" parent="1">
          <mxGeometry x="600" y="500" width="120" height="60" as="geometry" />
        </mxCell>
        <mxCell id="wJTwPAdukGqjJblI66U8-8" value="&lt;span style=&quot;font-size: 18px;&quot;&gt;CHI TIET DON HANG&lt;/span&gt;" style="rounded=1;whiteSpace=wrap;html=1;" vertex="1" parent="1">
          <mxGeometry x="565" y="100" width="190" height="120" as="geometry" />
        </mxCell>
        <mxCell id="wJTwPAdukGqjJblI66U8-9" value="&lt;span style=&quot;font-size: 18px;&quot;&gt;NHAN VIEN&lt;/span&gt;" style="rounded=1;whiteSpace=wrap;html=1;" vertex="1" parent="1">
          <mxGeometry x="-540" y="1030" width="120" height="60" as="geometry" />
        </mxCell>
        <mxCell id="wJTwPAdukGqjJblI66U8-10" value="&lt;span style=&quot;font-size: 18px;&quot;&gt;CHUC VU&lt;/span&gt;" style="rounded=1;whiteSpace=wrap;html=1;" vertex="1" parent="1">
          <mxGeometry x="-540" y="1340" width="120" height="60" as="geometry" />
        </mxCell>
        <mxCell id="wJTwPAdukGqjJblI66U8-13" value="" style="endArrow=classic;html=1;rounded=0;exitX=0.5;exitY=0;exitDx=0;exitDy=0;entryX=0.5;entryY=1;entryDx=0;entryDy=0;" edge="1" parent="1" source="wJTwPAdukGqjJblI66U8-10" target="wJTwPAdukGqjJblI66U8-9">
          <mxGeometry width="50" height="50" relative="1" as="geometry">
            <mxPoint x="680" y="830" as="sourcePoint" />
            <mxPoint x="730" y="780" as="targetPoint" />
          </mxGeometry>
        </mxCell>
        <mxCell id="wJTwPAdukGqjJblI66U8-17" value="&lt;font style=&quot;font-size: 18px;&quot;&gt;1 -1&lt;/font&gt;" style="edgeLabel;html=1;align=center;verticalAlign=middle;resizable=0;points=[];" connectable="0" vertex="1" parent="wJTwPAdukGqjJblI66U8-13">
          <mxGeometry x="0.1028" y="-2" relative="1" as="geometry">
            <mxPoint y="-1" as="offset" />
          </mxGeometry>
        </mxCell>
        <mxCell id="wJTwPAdukGqjJblI66U8-18" value="" style="endArrow=classic;startArrow=classic;html=1;rounded=0;entryX=1;entryY=0.5;entryDx=0;entryDy=0;exitX=0;exitY=0.5;exitDx=0;exitDy=0;" edge="1" parent="1" source="wJTwPAdukGqjJblI66U8-7" target="wJTwPAdukGqjJblI66U8-3">
          <mxGeometry width="50" height="50" relative="1" as="geometry">
            <mxPoint x="590" y="530" as="sourcePoint" />
            <mxPoint x="780" y="470" as="targetPoint" />
          </mxGeometry>
        </mxCell>
        <mxCell id="wJTwPAdukGqjJblI66U8-19" value="&lt;font style=&quot;font-size: 18px;&quot;&gt;n - n&lt;/font&gt;" style="edgeLabel;html=1;align=center;verticalAlign=middle;resizable=0;points=[];" connectable="0" vertex="1" parent="wJTwPAdukGqjJblI66U8-18">
          <mxGeometry x="0.0419" y="-3" relative="1" as="geometry">
            <mxPoint as="offset" />
          </mxGeometry>
        </mxCell>
        <mxCell id="wJTwPAdukGqjJblI66U8-20" value="" style="endArrow=classic;html=1;rounded=0;entryX=0;entryY=0.5;entryDx=0;entryDy=0;exitX=1;exitY=0;exitDx=0;exitDy=0;" edge="1" parent="1" source="wJTwPAdukGqjJblI66U8-7" target="wJTwPAdukGqjJblI66U8-6">
          <mxGeometry width="50" height="50" relative="1" as="geometry">
            <mxPoint x="730" y="640" as="sourcePoint" />
            <mxPoint x="780" y="590" as="targetPoint" />
          </mxGeometry>
        </mxCell>
        <mxCell id="wJTwPAdukGqjJblI66U8-22" value="&lt;font style=&quot;font-size: 18px;&quot;&gt;n - 1&lt;/font&gt;" style="edgeLabel;html=1;align=center;verticalAlign=middle;resizable=0;points=[];" connectable="0" vertex="1" parent="wJTwPAdukGqjJblI66U8-20">
          <mxGeometry x="0.0339" y="-3" relative="1" as="geometry">
            <mxPoint as="offset" />
          </mxGeometry>
        </mxCell>
        <mxCell id="wJTwPAdukGqjJblI66U8-23" value="" style="endArrow=classic;html=1;rounded=0;exitX=0.5;exitY=1;exitDx=0;exitDy=0;entryX=0.5;entryY=0;entryDx=0;entryDy=0;" edge="1" parent="1" source="wJTwPAdukGqjJblI66U8-8" target="wJTwPAdukGqjJblI66U8-7">
          <mxGeometry width="50" height="50" relative="1" as="geometry">
            <mxPoint x="720" y="580" as="sourcePoint" />
            <mxPoint x="770" y="530" as="targetPoint" />
          </mxGeometry>
        </mxCell>
        <mxCell id="wJTwPAdukGqjJblI66U8-24" value="&lt;font style=&quot;font-size: 18px;&quot;&gt;n - 1&lt;/font&gt;" style="edgeLabel;html=1;align=center;verticalAlign=middle;resizable=0;points=[];" connectable="0" vertex="1" parent="wJTwPAdukGqjJblI66U8-23">
          <mxGeometry x="-0.0571" relative="1" as="geometry">
            <mxPoint y="-1" as="offset" />
          </mxGeometry>
        </mxCell>
        <mxCell id="wJTwPAdukGqjJblI66U8-25" value="&lt;u&gt;&lt;font style=&quot;font-size: 14px;&quot;&gt;MaCTDH&lt;/font&gt;&lt;/u&gt;" style="ellipse;whiteSpace=wrap;html=1;" vertex="1" parent="1">
          <mxGeometry x="430" y="-70" width="120" height="80" as="geometry" />
        </mxCell>
        <mxCell id="wJTwPAdukGqjJblI66U8-26" value="&lt;font style=&quot;font-size: 14px;&quot;&gt;Mat Hang&lt;/font&gt;" style="ellipse;whiteSpace=wrap;html=1;" vertex="1" parent="1">
          <mxGeometry x="585" y="-70" width="120" height="80" as="geometry" />
        </mxCell>
        <mxCell id="wJTwPAdukGqjJblI66U8-27" value="&lt;span style=&quot;font-size: 14px;&quot;&gt;So Luong&lt;/span&gt;" style="ellipse;whiteSpace=wrap;html=1;" vertex="1" parent="1">
          <mxGeometry x="740" y="-70" width="120" height="80" as="geometry" />
        </mxCell>
        <mxCell id="wJTwPAdukGqjJblI66U8-28" value="" style="endArrow=none;html=1;rounded=0;entryX=0.602;entryY=1.016;entryDx=0;entryDy=0;entryPerimeter=0;exitX=0.25;exitY=0;exitDx=0;exitDy=0;" edge="1" parent="1" source="wJTwPAdukGqjJblI66U8-8" target="wJTwPAdukGqjJblI66U8-25">
          <mxGeometry width="50" height="50" relative="1" as="geometry">
            <mxPoint x="720" y="260" as="sourcePoint" />
            <mxPoint x="770" y="210" as="targetPoint" />
          </mxGeometry>
        </mxCell>
        <mxCell id="wJTwPAdukGqjJblI66U8-29" value="" style="endArrow=none;html=1;rounded=0;entryX=0.5;entryY=1;entryDx=0;entryDy=0;exitX=0.433;exitY=0;exitDx=0;exitDy=0;exitPerimeter=0;" edge="1" parent="1" source="wJTwPAdukGqjJblI66U8-8" target="wJTwPAdukGqjJblI66U8-26">
          <mxGeometry width="50" height="50" relative="1" as="geometry">
            <mxPoint x="613" y="100" as="sourcePoint" />
            <mxPoint x="502" y="11" as="targetPoint" />
          </mxGeometry>
        </mxCell>
        <mxCell id="wJTwPAdukGqjJblI66U8-30" value="" style="endArrow=none;html=1;rounded=0;entryX=0.321;entryY=0.984;entryDx=0;entryDy=0;entryPerimeter=0;exitX=0.75;exitY=0;exitDx=0;exitDy=0;" edge="1" parent="1" source="wJTwPAdukGqjJblI66U8-8" target="wJTwPAdukGqjJblI66U8-27">
          <mxGeometry width="50" height="50" relative="1" as="geometry">
            <mxPoint x="623" y="110" as="sourcePoint" />
            <mxPoint x="512" y="21" as="targetPoint" />
          </mxGeometry>
        </mxCell>
        <mxCell id="NMj2f-DkREQclC8dUfC--1" value="&lt;span style=&quot;font-size: 14px;&quot;&gt;&lt;u&gt;MaLH&lt;/u&gt;&lt;/span&gt;" style="ellipse;whiteSpace=wrap;html=1;" vertex="1" parent="1">
          <mxGeometry x="70" y="40" width="120" height="80" as="geometry" />
        </mxCell>
        <mxCell id="NMj2f-DkREQclC8dUfC--2" value="&lt;font style=&quot;font-size: 14px;&quot;&gt;Mat Hang&lt;/font&gt;" style="ellipse;whiteSpace=wrap;html=1;" vertex="1" parent="1">
          <mxGeometry x="250" y="40" width="120" height="80" as="geometry" />
        </mxCell>
        <mxCell id="NMj2f-DkREQclC8dUfC--3" value="" style="endArrow=none;html=1;rounded=0;entryX=0.5;entryY=1;entryDx=0;entryDy=0;exitX=0.5;exitY=0;exitDx=0;exitDy=0;" edge="1" parent="1" source="wJTwPAdukGqjJblI66U8-2" target="NMj2f-DkREQclC8dUfC--2">
          <mxGeometry width="50" height="50" relative="1" as="geometry">
            <mxPoint x="490" y="340" as="sourcePoint" />
            <mxPoint x="540" y="290" as="targetPoint" />
          </mxGeometry>
        </mxCell>
        <mxCell id="NMj2f-DkREQclC8dUfC--4" value="" style="endArrow=none;html=1;rounded=0;entryX=0.5;entryY=1;entryDx=0;entryDy=0;exitX=0.5;exitY=0;exitDx=0;exitDy=0;" edge="1" parent="1" source="wJTwPAdukGqjJblI66U8-2" target="NMj2f-DkREQclC8dUfC--1">
          <mxGeometry width="50" height="50" relative="1" as="geometry">
            <mxPoint x="490" y="340" as="sourcePoint" />
            <mxPoint x="540" y="290" as="targetPoint" />
          </mxGeometry>
        </mxCell>
        <mxCell id="NMj2f-DkREQclC8dUfC--5" value="&lt;span style=&quot;font-size: 14px;&quot;&gt;&lt;u&gt;MaMH&lt;/u&gt;&lt;/span&gt;" style="ellipse;whiteSpace=wrap;html=1;" vertex="1" parent="1">
          <mxGeometry x="-140" y="260" width="120" height="80" as="geometry" />
        </mxCell>
        <mxCell id="NMj2f-DkREQclC8dUfC--6" value="&lt;span style=&quot;font-size: 14px;&quot;&gt;TenMH&lt;/span&gt;" style="ellipse;whiteSpace=wrap;html=1;" vertex="1" parent="1">
          <mxGeometry x="-250" y="334" width="120" height="80" as="geometry" />
        </mxCell>
        <mxCell id="NMj2f-DkREQclC8dUfC--7" value="&lt;span style=&quot;font-size: 14px;&quot;&gt;Gia Ban&lt;/span&gt;" style="ellipse;whiteSpace=wrap;html=1;" vertex="1" parent="1">
          <mxGeometry x="-330" y="430" width="120" height="80" as="geometry" />
        </mxCell>
        <mxCell id="NMj2f-DkREQclC8dUfC--8" value="&lt;span style=&quot;font-size: 14px;&quot;&gt;Gia Mua&lt;/span&gt;" style="ellipse;whiteSpace=wrap;html=1;" vertex="1" parent="1">
          <mxGeometry x="-360" y="530" width="120" height="80" as="geometry" />
        </mxCell>
        <mxCell id="NMj2f-DkREQclC8dUfC--9" value="&lt;span style=&quot;font-size: 14px;&quot;&gt;Ngay Nhap Hang&lt;/span&gt;" style="ellipse;whiteSpace=wrap;html=1;" vertex="1" parent="1">
          <mxGeometry x="-320" y="630" width="120" height="80" as="geometry" />
        </mxCell>
        <mxCell id="NMj2f-DkREQclC8dUfC--11" value="&lt;span style=&quot;font-size: 14px;&quot;&gt;Mau Sac&lt;/span&gt;" style="ellipse;whiteSpace=wrap;html=1;" vertex="1" parent="1">
          <mxGeometry x="-250" y="720" width="120" height="80" as="geometry" />
        </mxCell>
        <mxCell id="NMj2f-DkREQclC8dUfC--12" value="&lt;span style=&quot;font-size: 14px;&quot;&gt;So Luong&lt;/span&gt;" style="ellipse;whiteSpace=wrap;html=1;" vertex="1" parent="1">
          <mxGeometry x="-130" y="790" width="120" height="80" as="geometry" />
        </mxCell>
        <mxCell id="NMj2f-DkREQclC8dUfC--13" value="" style="endArrow=none;html=1;rounded=0;entryX=1;entryY=0.75;entryDx=0;entryDy=0;entryPerimeter=0;exitX=0;exitY=0;exitDx=0;exitDy=0;" edge="1" parent="1" source="wJTwPAdukGqjJblI66U8-3" target="NMj2f-DkREQclC8dUfC--5">
          <mxGeometry width="50" height="50" relative="1" as="geometry">
            <mxPoint x="500" y="700" as="sourcePoint" />
            <mxPoint x="550" y="650" as="targetPoint" />
          </mxGeometry>
        </mxCell>
        <mxCell id="NMj2f-DkREQclC8dUfC--14" value="" style="endArrow=none;html=1;rounded=0;entryX=0.971;entryY=0.738;entryDx=0;entryDy=0;entryPerimeter=0;exitX=0;exitY=0.25;exitDx=0;exitDy=0;" edge="1" parent="1" source="wJTwPAdukGqjJblI66U8-3" target="NMj2f-DkREQclC8dUfC--6">
          <mxGeometry width="50" height="50" relative="1" as="geometry">
            <mxPoint x="500" y="700" as="sourcePoint" />
            <mxPoint x="550" y="650" as="targetPoint" />
          </mxGeometry>
        </mxCell>
        <mxCell id="NMj2f-DkREQclC8dUfC--15" value="" style="endArrow=none;html=1;rounded=0;entryX=1;entryY=0.5;entryDx=0;entryDy=0;exitX=0;exitY=0.25;exitDx=0;exitDy=0;" edge="1" parent="1" source="wJTwPAdukGqjJblI66U8-3" target="NMj2f-DkREQclC8dUfC--7">
          <mxGeometry width="50" height="50" relative="1" as="geometry">
            <mxPoint x="170" y="520" as="sourcePoint" />
            <mxPoint x="550" y="650" as="targetPoint" />
          </mxGeometry>
        </mxCell>
        <mxCell id="NMj2f-DkREQclC8dUfC--16" value="" style="endArrow=none;html=1;rounded=0;entryX=1;entryY=0.5;entryDx=0;entryDy=0;exitX=0;exitY=0.5;exitDx=0;exitDy=0;" edge="1" parent="1" source="wJTwPAdukGqjJblI66U8-3" target="NMj2f-DkREQclC8dUfC--8">
          <mxGeometry width="50" height="50" relative="1" as="geometry">
            <mxPoint x="500" y="700" as="sourcePoint" />
            <mxPoint x="550" y="650" as="targetPoint" />
          </mxGeometry>
        </mxCell>
        <mxCell id="NMj2f-DkREQclC8dUfC--17" value="" style="endArrow=none;html=1;rounded=0;entryX=1;entryY=0.5;entryDx=0;entryDy=0;exitX=0;exitY=0.75;exitDx=0;exitDy=0;" edge="1" parent="1" source="wJTwPAdukGqjJblI66U8-3" target="NMj2f-DkREQclC8dUfC--9">
          <mxGeometry width="50" height="50" relative="1" as="geometry">
            <mxPoint x="500" y="700" as="sourcePoint" />
            <mxPoint x="550" y="650" as="targetPoint" />
          </mxGeometry>
        </mxCell>
        <mxCell id="NMj2f-DkREQclC8dUfC--18" value="" style="endArrow=none;html=1;rounded=0;entryX=0.936;entryY=0.305;entryDx=0;entryDy=0;entryPerimeter=0;exitX=0;exitY=1;exitDx=0;exitDy=0;" edge="1" parent="1" source="wJTwPAdukGqjJblI66U8-3" target="NMj2f-DkREQclC8dUfC--11">
          <mxGeometry width="50" height="50" relative="1" as="geometry">
            <mxPoint x="500" y="700" as="sourcePoint" />
            <mxPoint x="550" y="650" as="targetPoint" />
          </mxGeometry>
        </mxCell>
        <mxCell id="NMj2f-DkREQclC8dUfC--19" value="" style="endArrow=none;html=1;rounded=0;entryX=1;entryY=0;entryDx=0;entryDy=0;exitX=0.25;exitY=1;exitDx=0;exitDy=0;" edge="1" parent="1" source="wJTwPAdukGqjJblI66U8-3" target="NMj2f-DkREQclC8dUfC--12">
          <mxGeometry width="50" height="50" relative="1" as="geometry">
            <mxPoint x="500" y="700" as="sourcePoint" />
            <mxPoint x="550" y="650" as="targetPoint" />
          </mxGeometry>
        </mxCell>
        <mxCell id="NMj2f-DkREQclC8dUfC--20" value="&lt;span style=&quot;font-size: 14px;&quot;&gt;Ngay Dat Hang&lt;/span&gt;" style="ellipse;whiteSpace=wrap;html=1;" vertex="1" parent="1">
          <mxGeometry x="640" y="780" width="120" height="80" as="geometry" />
        </mxCell>
        <mxCell id="NMj2f-DkREQclC8dUfC--21" value="&lt;span style=&quot;font-size: 14px;&quot;&gt;Phi Van Chuyen&lt;/span&gt;" style="ellipse;whiteSpace=wrap;html=1;" vertex="1" parent="1">
          <mxGeometry x="770" y="747" width="120" height="80" as="geometry" />
        </mxCell>
        <mxCell id="NMj2f-DkREQclC8dUfC--23" value="&lt;span style=&quot;font-size: 14px;&quot;&gt;Tinh Trang Don Hang&lt;/span&gt;" style="ellipse;whiteSpace=wrap;html=1;" vertex="1" parent="1">
          <mxGeometry x="525" y="720" width="120" height="80" as="geometry" />
        </mxCell>
        <mxCell id="NMj2f-DkREQclC8dUfC--25" value="&lt;span style=&quot;font-size: 14px;&quot;&gt;Tong Tien&lt;/span&gt;" style="ellipse;whiteSpace=wrap;html=1;" vertex="1" parent="1">
          <mxGeometry x="820" y="660" width="120" height="80" as="geometry" />
        </mxCell>
        <mxCell id="NMj2f-DkREQclC8dUfC--27" value="" style="endArrow=none;html=1;rounded=0;entryX=0.25;entryY=1;entryDx=0;entryDy=0;exitX=0.5;exitY=0;exitDx=0;exitDy=0;" edge="1" parent="1" source="NMj2f-DkREQclC8dUfC--23" target="wJTwPAdukGqjJblI66U8-7">
          <mxGeometry width="50" height="50" relative="1" as="geometry">
            <mxPoint x="500" y="690" as="sourcePoint" />
            <mxPoint x="550" y="640" as="targetPoint" />
          </mxGeometry>
        </mxCell>
        <mxCell id="NMj2f-DkREQclC8dUfC--28" value="" style="endArrow=none;html=1;rounded=0;entryX=0.5;entryY=1;entryDx=0;entryDy=0;exitX=0.5;exitY=0;exitDx=0;exitDy=0;" edge="1" parent="1" source="NMj2f-DkREQclC8dUfC--20" target="wJTwPAdukGqjJblI66U8-7">
          <mxGeometry width="50" height="50" relative="1" as="geometry">
            <mxPoint x="500" y="690" as="sourcePoint" />
            <mxPoint x="550" y="640" as="targetPoint" />
          </mxGeometry>
        </mxCell>
        <mxCell id="NMj2f-DkREQclC8dUfC--29" value="" style="endArrow=none;html=1;rounded=0;entryX=0.75;entryY=1;entryDx=0;entryDy=0;exitX=0.245;exitY=0.093;exitDx=0;exitDy=0;exitPerimeter=0;" edge="1" parent="1" source="NMj2f-DkREQclC8dUfC--21" target="wJTwPAdukGqjJblI66U8-7">
          <mxGeometry width="50" height="50" relative="1" as="geometry">
            <mxPoint x="500" y="690" as="sourcePoint" />
            <mxPoint x="550" y="640" as="targetPoint" />
          </mxGeometry>
        </mxCell>
        <mxCell id="NMj2f-DkREQclC8dUfC--30" value="" style="endArrow=none;html=1;rounded=0;entryX=1;entryY=1;entryDx=0;entryDy=0;exitX=0;exitY=0;exitDx=0;exitDy=0;" edge="1" parent="1" source="NMj2f-DkREQclC8dUfC--25" target="wJTwPAdukGqjJblI66U8-7">
          <mxGeometry width="50" height="50" relative="1" as="geometry">
            <mxPoint x="500" y="690" as="sourcePoint" />
            <mxPoint x="550" y="640" as="targetPoint" />
          </mxGeometry>
        </mxCell>
        <mxCell id="NMj2f-DkREQclC8dUfC--31" value="&lt;span style=&quot;font-size: 14px;&quot;&gt;&lt;u&gt;MaMH&lt;/u&gt;&lt;/span&gt;" style="ellipse;whiteSpace=wrap;html=1;" vertex="1" parent="1">
          <mxGeometry x="-620" y="840" width="120" height="80" as="geometry" />
        </mxCell>
        <mxCell id="NMj2f-DkREQclC8dUfC--32" value="" style="endArrow=none;html=1;rounded=0;entryX=0.579;entryY=1.002;entryDx=0;entryDy=0;entryPerimeter=0;exitX=0.25;exitY=0;exitDx=0;exitDy=0;" edge="1" parent="1" source="wJTwPAdukGqjJblI66U8-9" target="NMj2f-DkREQclC8dUfC--31">
          <mxGeometry width="50" height="50" relative="1" as="geometry">
            <mxPoint x="60" y="690" as="sourcePoint" />
            <mxPoint x="110" y="640" as="targetPoint" />
          </mxGeometry>
        </mxCell>
        <mxCell id="NMj2f-DkREQclC8dUfC--33" value="&lt;span style=&quot;font-size: 14px;&quot;&gt;Ho &amp;amp; Ten&lt;/span&gt;" style="ellipse;whiteSpace=wrap;html=1;" vertex="1" parent="1">
          <mxGeometry x="-460" y="840" width="120" height="80" as="geometry" />
        </mxCell>
        <mxCell id="NMj2f-DkREQclC8dUfC--34" value="" style="endArrow=none;html=1;rounded=0;exitX=0.75;exitY=0;exitDx=0;exitDy=0;entryX=0.5;entryY=1;entryDx=0;entryDy=0;" edge="1" parent="1" source="wJTwPAdukGqjJblI66U8-9" target="NMj2f-DkREQclC8dUfC--33">
          <mxGeometry width="50" height="50" relative="1" as="geometry">
            <mxPoint x="60" y="690" as="sourcePoint" />
            <mxPoint x="110" y="640" as="targetPoint" />
          </mxGeometry>
        </mxCell>
        <mxCell id="NMj2f-DkREQclC8dUfC--36" value="&lt;span style=&quot;font-size: 14px;&quot;&gt;&lt;u&gt;MaCV&lt;/u&gt;&lt;/span&gt;" style="ellipse;whiteSpace=wrap;html=1;" vertex="1" parent="1">
          <mxGeometry x="-660" y="1490" width="120" height="80" as="geometry" />
        </mxCell>
        <mxCell id="NMj2f-DkREQclC8dUfC--37" value="&lt;span style=&quot;font-size: 14px;&quot;&gt;Mo Ta&lt;/span&gt;" style="ellipse;whiteSpace=wrap;html=1;" vertex="1" parent="1">
          <mxGeometry x="-440" y="1490" width="120" height="80" as="geometry" />
        </mxCell>
        <mxCell id="NMj2f-DkREQclC8dUfC--38" value="" style="endArrow=none;html=1;rounded=0;entryX=0.25;entryY=1;entryDx=0;entryDy=0;exitX=0.5;exitY=0;exitDx=0;exitDy=0;" edge="1" parent="1" source="NMj2f-DkREQclC8dUfC--36" target="wJTwPAdukGqjJblI66U8-10">
          <mxGeometry width="50" height="50" relative="1" as="geometry">
            <mxPoint x="60" y="1220" as="sourcePoint" />
            <mxPoint x="110" y="1170" as="targetPoint" />
          </mxGeometry>
        </mxCell>
        <mxCell id="NMj2f-DkREQclC8dUfC--39" value="" style="endArrow=none;html=1;rounded=0;exitX=0.5;exitY=0;exitDx=0;exitDy=0;entryX=0.75;entryY=1;entryDx=0;entryDy=0;entryPerimeter=0;" edge="1" parent="1" source="NMj2f-DkREQclC8dUfC--37" target="wJTwPAdukGqjJblI66U8-10">
          <mxGeometry width="50" height="50" relative="1" as="geometry">
            <mxPoint x="60" y="1220" as="sourcePoint" />
            <mxPoint x="-460" y="1410" as="targetPoint" />
          </mxGeometry>
        </mxCell>
        <mxCell id="NMj2f-DkREQclC8dUfC--40" value="&lt;span style=&quot;font-size: 14px;&quot;&gt;&lt;u&gt;MaLH&lt;/u&gt;&lt;/span&gt;" style="ellipse;whiteSpace=wrap;html=1;" vertex="1" parent="1">
          <mxGeometry x="1150" y="10" width="120" height="80" as="geometry" />
        </mxCell>
        <mxCell id="NMj2f-DkREQclC8dUfC--41" value="&lt;span style=&quot;font-size: 14px;&quot;&gt;Ten KH&lt;/span&gt;" style="ellipse;whiteSpace=wrap;html=1;" vertex="1" parent="1">
          <mxGeometry x="1220" y="90" width="120" height="80" as="geometry" />
        </mxCell>
        <mxCell id="NMj2f-DkREQclC8dUfC--42" value="&lt;span style=&quot;font-size: 14px;&quot;&gt;Email&lt;/span&gt;" style="ellipse;whiteSpace=wrap;html=1;" vertex="1" parent="1">
          <mxGeometry x="1270" y="190" width="120" height="80" as="geometry" />
        </mxCell>
        <mxCell id="NMj2f-DkREQclC8dUfC--43" value="&lt;span style=&quot;font-size: 14px;&quot;&gt;SDT&lt;/span&gt;" style="ellipse;whiteSpace=wrap;html=1;" vertex="1" parent="1">
          <mxGeometry x="1240" y="290" width="120" height="80" as="geometry" />
        </mxCell>
        <mxCell id="NMj2f-DkREQclC8dUfC--44" value="&lt;span style=&quot;font-size: 14px;&quot;&gt;Dia Chi&lt;/span&gt;" style="ellipse;whiteSpace=wrap;html=1;" vertex="1" parent="1">
          <mxGeometry x="1180" y="380" width="120" height="80" as="geometry" />
        </mxCell>
        <mxCell id="NMj2f-DkREQclC8dUfC--45" value="&lt;span style=&quot;font-size: 14px;&quot;&gt;Mat Khau&lt;/span&gt;" style="ellipse;whiteSpace=wrap;html=1;" vertex="1" parent="1">
          <mxGeometry x="1040" y="400" width="120" height="80" as="geometry" />
        </mxCell>
        <mxCell id="NMj2f-DkREQclC8dUfC--46" value="" style="endArrow=none;html=1;rounded=0;entryX=0.5;entryY=1;entryDx=0;entryDy=0;exitX=0.5;exitY=0;exitDx=0;exitDy=0;" edge="1" parent="1" source="NMj2f-DkREQclC8dUfC--45" target="wJTwPAdukGqjJblI66U8-6">
          <mxGeometry width="50" height="50" relative="1" as="geometry">
            <mxPoint x="640" y="510" as="sourcePoint" />
            <mxPoint x="690" y="460" as="targetPoint" />
          </mxGeometry>
        </mxCell>
        <mxCell id="NMj2f-DkREQclC8dUfC--47" value="" style="endArrow=none;html=1;rounded=0;entryX=0.75;entryY=1;entryDx=0;entryDy=0;exitX=0;exitY=0;exitDx=0;exitDy=0;" edge="1" parent="1" source="NMj2f-DkREQclC8dUfC--44" target="wJTwPAdukGqjJblI66U8-6">
          <mxGeometry width="50" height="50" relative="1" as="geometry">
            <mxPoint x="640" y="510" as="sourcePoint" />
            <mxPoint x="690" y="460" as="targetPoint" />
          </mxGeometry>
        </mxCell>
        <mxCell id="NMj2f-DkREQclC8dUfC--48" value="" style="endArrow=none;html=1;rounded=0;entryX=1;entryY=1;entryDx=0;entryDy=0;exitX=0.031;exitY=0.252;exitDx=0;exitDy=0;exitPerimeter=0;" edge="1" parent="1" source="NMj2f-DkREQclC8dUfC--43" target="wJTwPAdukGqjJblI66U8-6">
          <mxGeometry width="50" height="50" relative="1" as="geometry">
            <mxPoint x="640" y="510" as="sourcePoint" />
            <mxPoint x="690" y="460" as="targetPoint" />
          </mxGeometry>
        </mxCell>
        <mxCell id="NMj2f-DkREQclC8dUfC--49" value="" style="endArrow=none;html=1;rounded=0;entryX=1;entryY=0.5;entryDx=0;entryDy=0;exitX=0;exitY=0.5;exitDx=0;exitDy=0;" edge="1" parent="1" source="NMj2f-DkREQclC8dUfC--42" target="wJTwPAdukGqjJblI66U8-6">
          <mxGeometry width="50" height="50" relative="1" as="geometry">
            <mxPoint x="640" y="510" as="sourcePoint" />
            <mxPoint x="690" y="460" as="targetPoint" />
          </mxGeometry>
        </mxCell>
        <mxCell id="NMj2f-DkREQclC8dUfC--50" value="" style="endArrow=none;html=1;rounded=0;entryX=0;entryY=0.5;entryDx=0;entryDy=0;exitX=1;exitY=0;exitDx=0;exitDy=0;" edge="1" parent="1" source="wJTwPAdukGqjJblI66U8-6" target="NMj2f-DkREQclC8dUfC--41">
          <mxGeometry width="50" height="50" relative="1" as="geometry">
            <mxPoint x="640" y="510" as="sourcePoint" />
            <mxPoint x="690" y="460" as="targetPoint" />
          </mxGeometry>
        </mxCell>
        <mxCell id="NMj2f-DkREQclC8dUfC--51" value="" style="endArrow=none;html=1;rounded=0;entryX=0;entryY=1;entryDx=0;entryDy=0;exitX=0.5;exitY=0;exitDx=0;exitDy=0;" edge="1" parent="1" source="wJTwPAdukGqjJblI66U8-6" target="NMj2f-DkREQclC8dUfC--40">
          <mxGeometry width="50" height="50" relative="1" as="geometry">
            <mxPoint x="640" y="510" as="sourcePoint" />
            <mxPoint x="690" y="460" as="targetPoint" />
          </mxGeometry>
        </mxCell>
        <mxCell id="NMj2f-DkREQclC8dUfC--52" value="&lt;span style=&quot;font-size: 18px;&quot;&gt;CHAT LIEU&lt;/span&gt;" style="rounded=1;whiteSpace=wrap;html=1;" vertex="1" parent="1">
          <mxGeometry y="940" width="120" height="60" as="geometry" />
        </mxCell>
        <mxCell id="NMj2f-DkREQclC8dUfC--53" value="&lt;span style=&quot;font-size: 18px;&quot;&gt;KICH CO&lt;/span&gt;" style="rounded=1;whiteSpace=wrap;html=1;" vertex="1" parent="1">
          <mxGeometry x="420" y="940" width="120" height="60" as="geometry" />
        </mxCell>
        <mxCell id="NMj2f-DkREQclC8dUfC--54" value="&lt;span style=&quot;font-size: 14px;&quot;&gt;&lt;u&gt;MaCL&lt;/u&gt;&lt;/span&gt;" style="ellipse;whiteSpace=wrap;html=1;" vertex="1" parent="1">
          <mxGeometry x="-70" y="1050" width="120" height="80" as="geometry" />
        </mxCell>
        <mxCell id="NMj2f-DkREQclC8dUfC--55" value="&lt;span style=&quot;font-size: 14px;&quot;&gt;TenCL&lt;/span&gt;" style="ellipse;whiteSpace=wrap;html=1;" vertex="1" parent="1">
          <mxGeometry x="80" y="1050" width="120" height="80" as="geometry" />
        </mxCell>
        <mxCell id="NMj2f-DkREQclC8dUfC--56" value="" style="endArrow=none;html=1;rounded=0;exitX=0.769;exitY=0.055;exitDx=0;exitDy=0;exitPerimeter=0;entryX=0.388;entryY=0.979;entryDx=0;entryDy=0;entryPerimeter=0;" edge="1" parent="1" source="NMj2f-DkREQclC8dUfC--54" target="NMj2f-DkREQclC8dUfC--52">
          <mxGeometry width="50" height="50" relative="1" as="geometry">
            <mxPoint x="640" y="990" as="sourcePoint" />
            <mxPoint x="690" y="940" as="targetPoint" />
          </mxGeometry>
        </mxCell>
        <mxCell id="NMj2f-DkREQclC8dUfC--57" value="" style="endArrow=none;html=1;rounded=0;entryX=0.614;entryY=0.955;entryDx=0;entryDy=0;entryPerimeter=0;exitX=0.221;exitY=0.037;exitDx=0;exitDy=0;exitPerimeter=0;" edge="1" parent="1" source="NMj2f-DkREQclC8dUfC--55" target="NMj2f-DkREQclC8dUfC--52">
          <mxGeometry width="50" height="50" relative="1" as="geometry">
            <mxPoint x="640" y="990" as="sourcePoint" />
            <mxPoint x="690" y="940" as="targetPoint" />
          </mxGeometry>
        </mxCell>
        <mxCell id="NMj2f-DkREQclC8dUfC--58" value="&lt;span style=&quot;font-size: 14px;&quot;&gt;&lt;u&gt;MaKC&lt;/u&gt;&lt;/span&gt;" style="ellipse;whiteSpace=wrap;html=1;" vertex="1" parent="1">
          <mxGeometry x="270" y="1060" width="120" height="80" as="geometry" />
        </mxCell>
        <mxCell id="NMj2f-DkREQclC8dUfC--59" value="&lt;span style=&quot;font-size: 14px;&quot;&gt;TenKC&lt;/span&gt;" style="ellipse;whiteSpace=wrap;html=1;" vertex="1" parent="1">
          <mxGeometry x="420" y="1070" width="120" height="80" as="geometry" />
        </mxCell>
        <mxCell id="NMj2f-DkREQclC8dUfC--60" value="&lt;span style=&quot;font-size: 14px;&quot;&gt;Kich Co Chinh Xac&lt;/span&gt;" style="ellipse;whiteSpace=wrap;html=1;" vertex="1" parent="1">
          <mxGeometry x="570" y="1060" width="140" height="80" as="geometry" />
        </mxCell>
        <mxCell id="NMj2f-DkREQclC8dUfC--61" value="" style="endArrow=none;html=1;rounded=0;exitX=0.5;exitY=0;exitDx=0;exitDy=0;entryX=0.352;entryY=1.026;entryDx=0;entryDy=0;entryPerimeter=0;" edge="1" parent="1" source="NMj2f-DkREQclC8dUfC--58" target="NMj2f-DkREQclC8dUfC--53">
          <mxGeometry width="50" height="50" relative="1" as="geometry">
            <mxPoint x="640" y="990" as="sourcePoint" />
            <mxPoint x="690" y="940" as="targetPoint" />
          </mxGeometry>
        </mxCell>
        <mxCell id="NMj2f-DkREQclC8dUfC--62" value="" style="endArrow=none;html=1;rounded=0;exitX=0.5;exitY=0;exitDx=0;exitDy=0;entryX=0.5;entryY=1;entryDx=0;entryDy=0;" edge="1" parent="1" source="NMj2f-DkREQclC8dUfC--59" target="NMj2f-DkREQclC8dUfC--53">
          <mxGeometry width="50" height="50" relative="1" as="geometry">
            <mxPoint x="640" y="990" as="sourcePoint" />
            <mxPoint x="690" y="940" as="targetPoint" />
          </mxGeometry>
        </mxCell>
        <mxCell id="NMj2f-DkREQclC8dUfC--63" value="" style="endArrow=none;html=1;rounded=0;exitX=0.75;exitY=1;exitDx=0;exitDy=0;entryX=0.424;entryY=-0.016;entryDx=0;entryDy=0;entryPerimeter=0;" edge="1" parent="1" source="NMj2f-DkREQclC8dUfC--53" target="NMj2f-DkREQclC8dUfC--60">
          <mxGeometry width="50" height="50" relative="1" as="geometry">
            <mxPoint x="640" y="990" as="sourcePoint" />
            <mxPoint x="690" y="940" as="targetPoint" />
          </mxGeometry>
        </mxCell>
        <mxCell id="NMj2f-DkREQclC8dUfC--64" value="" style="endArrow=classic;html=1;rounded=0;exitX=0.5;exitY=0;exitDx=0;exitDy=0;entryX=0.5;entryY=1;entryDx=0;entryDy=0;" edge="1" parent="1" source="NMj2f-DkREQclC8dUfC--52" target="wJTwPAdukGqjJblI66U8-3">
          <mxGeometry width="50" height="50" relative="1" as="geometry">
            <mxPoint x="640" y="990" as="sourcePoint" />
            <mxPoint x="690" y="940" as="targetPoint" />
          </mxGeometry>
        </mxCell>
        <mxCell id="NMj2f-DkREQclC8dUfC--66" value="&lt;span style=&quot;font-size: 18px;&quot;&gt;1 - n&lt;/span&gt;" style="edgeLabel;html=1;align=center;verticalAlign=middle;resizable=0;points=[];" connectable="0" vertex="1" parent="NMj2f-DkREQclC8dUfC--64">
          <mxGeometry x="-0.1105" y="2" relative="1" as="geometry">
            <mxPoint as="offset" />
          </mxGeometry>
        </mxCell>
        <mxCell id="NMj2f-DkREQclC8dUfC--65" value="" style="endArrow=classic;html=1;rounded=0;exitX=0.5;exitY=0;exitDx=0;exitDy=0;entryX=0.75;entryY=1;entryDx=0;entryDy=0;" edge="1" parent="1" source="NMj2f-DkREQclC8dUfC--53" target="wJTwPAdukGqjJblI66U8-3">
          <mxGeometry width="50" height="50" relative="1" as="geometry">
            <mxPoint x="640" y="990" as="sourcePoint" />
            <mxPoint x="690" y="940" as="targetPoint" />
          </mxGeometry>
        </mxCell>
        <mxCell id="NMj2f-DkREQclC8dUfC--67" value="&lt;span style=&quot;font-size: 18px;&quot;&gt;1 - n&lt;/span&gt;" style="edgeLabel;html=1;align=center;verticalAlign=middle;resizable=0;points=[];" connectable="0" vertex="1" parent="NMj2f-DkREQclC8dUfC--65">
          <mxGeometry x="0.0105" y="4" relative="1" as="geometry">
            <mxPoint as="offset" />
          </mxGeometry>
        </mxCell>
        <mxCell id="NMj2f-DkREQclC8dUfC--69" value="&lt;span style=&quot;font-size: 18px;&quot;&gt;HINH THUC THANH TOAN&lt;/span&gt;" style="rounded=1;whiteSpace=wrap;html=1;" vertex="1" parent="1">
          <mxGeometry x="1220" y="570" width="240" height="60" as="geometry" />
        </mxCell>
        <mxCell id="NMj2f-DkREQclC8dUfC--70" value="&lt;u&gt;&lt;font style=&quot;font-size: 14px;&quot;&gt;MaDH&lt;/font&gt;&lt;/u&gt;" style="ellipse;whiteSpace=wrap;html=1;" vertex="1" parent="1">
          <mxGeometry x="430" y="650" width="120" height="80" as="geometry" />
        </mxCell>
        <mxCell id="NMj2f-DkREQclC8dUfC--71" value="" style="endArrow=none;html=1;rounded=0;exitX=0.71;exitY=0.055;exitDx=0;exitDy=0;exitPerimeter=0;entryX=0;entryY=1;entryDx=0;entryDy=0;" edge="1" parent="1" source="NMj2f-DkREQclC8dUfC--70" target="wJTwPAdukGqjJblI66U8-7">
          <mxGeometry width="50" height="50" relative="1" as="geometry">
            <mxPoint x="920" y="440" as="sourcePoint" />
            <mxPoint x="970" y="390" as="targetPoint" />
          </mxGeometry>
        </mxCell>
        <mxCell id="NMj2f-DkREQclC8dUfC--72" value="&lt;span style=&quot;font-size: 14px;&quot;&gt;&lt;u&gt;MaHinhThuc&lt;/u&gt;&lt;/span&gt;" style="ellipse;whiteSpace=wrap;html=1;" vertex="1" parent="1">
          <mxGeometry x="1540" y="540" width="120" height="80" as="geometry" />
        </mxCell>
        <mxCell id="NMj2f-DkREQclC8dUfC--73" value="&lt;span style=&quot;font-size: 14px;&quot;&gt;Ten Hinh Thuc&lt;/span&gt;" style="ellipse;whiteSpace=wrap;html=1;" vertex="1" parent="1">
          <mxGeometry x="1510" y="660" width="120" height="80" as="geometry" />
        </mxCell>
        <mxCell id="NMj2f-DkREQclC8dUfC--74" value="" style="endArrow=none;html=1;rounded=0;entryX=0;entryY=0.5;entryDx=0;entryDy=0;exitX=1;exitY=0.5;exitDx=0;exitDy=0;" edge="1" parent="1" source="NMj2f-DkREQclC8dUfC--69" target="NMj2f-DkREQclC8dUfC--72">
          <mxGeometry width="50" height="50" relative="1" as="geometry">
            <mxPoint x="920" y="440" as="sourcePoint" />
            <mxPoint x="970" y="390" as="targetPoint" />
          </mxGeometry>
        </mxCell>
        <mxCell id="NMj2f-DkREQclC8dUfC--75" value="" style="endArrow=none;html=1;rounded=0;exitX=0;exitY=0;exitDx=0;exitDy=0;entryX=1;entryY=0.5;entryDx=0;entryDy=0;" edge="1" parent="1" source="NMj2f-DkREQclC8dUfC--73" target="NMj2f-DkREQclC8dUfC--69">
          <mxGeometry width="50" height="50" relative="1" as="geometry">
            <mxPoint x="920" y="440" as="sourcePoint" />
            <mxPoint x="970" y="390" as="targetPoint" />
          </mxGeometry>
        </mxCell>
        <mxCell id="NMj2f-DkREQclC8dUfC--76" value="" style="endArrow=classic;html=1;rounded=0;entryX=1;entryY=0.5;entryDx=0;entryDy=0;exitX=0;exitY=0.5;exitDx=0;exitDy=0;" edge="1" parent="1" source="NMj2f-DkREQclC8dUfC--69" target="wJTwPAdukGqjJblI66U8-7">
          <mxGeometry width="50" height="50" relative="1" as="geometry">
            <mxPoint x="920" y="440" as="sourcePoint" />
            <mxPoint x="970" y="390" as="targetPoint" />
          </mxGeometry>
        </mxCell>
        <mxCell id="NMj2f-DkREQclC8dUfC--77" value="&lt;span style=&quot;font-size: 18px;&quot;&gt;1 - n&lt;/span&gt;" style="edgeLabel;html=1;align=center;verticalAlign=middle;resizable=0;points=[];" connectable="0" vertex="1" parent="NMj2f-DkREQclC8dUfC--76">
          <mxGeometry x="0.001" y="2" relative="1" as="geometry">
            <mxPoint as="offset" />
          </mxGeometry>
        </mxCell>
      </root>
    </mxGraphModel>
  </diagram>
</mxfile>
